# xmcd
# 
# Track frame offsets:
#     150
#     21755
#     43172
#     56015
#     77030
#     94037
#     103415
#     123370
#     138270
#     159012
#     174625
#     180825
# 
# Disc length: 2599
# 
# Revision: 2
# Processed by: cddbd v1.5.2PL0 Copyright (c) Steve Scherf et al.
# Submitted via: BonkEnc v1.0.8
# 
DISCID=920a250c
DTITLE=Alphonse Mouzon - Funky Snakefoot
DYEAR=1973
DGENRE=Fusion
TTITLE0=I've Given You My Love
TTITLE1=You Don't Know How Much I Love You
TTITLE2=I Gotta Have You
TTITLE3=My Life Is So Blue
TTITLE4=Funky Snakefoot
TTITLE5=My Little Rosebud
TTITLE6=A Permanent Love
TTITLE7=The Beggar
TTITLE8=Oh Yes I Do
TTITLE9=Tara Tara
TTITLE10=Where I'm Drumming From
TTITLE11=ISM
EXTD=
EXTT0=
EXTT1=
EXTT2=
EXTT3=
EXTT4=
EXTT5=
EXTT6=
EXTT7=
EXTT8=
EXTT9=
EXTT10=
EXTT11=
PLAYORDER=
